<svg height="496pt" viewBox="0 0 496 496" width="496pt" xmlns="http://www.w3.org/2000/svg"><path d="m24 424h448v32h-448zm0 0" fill="#a6a6a6"/><path d="m8 456h480v32h-480zm0 0" fill="#717171"/><path d="m56 200h64v192h-64zm0 0" fill="#bba48d"/><path d="m56 200h32v192h-32zm0 0" fill="#edd0c4"/><path d="m376 200h64v192h-64zm0 0" fill="#bba48d"/><path d="m376 200h32v192h-32zm0 0" fill="#edd0c4"/><g fill="#ba9c90"><path d="m40 392h96v32h-96zm0 0"/><path d="m40 168h96v32h-96zm0 0"/><path d="m360 392h96v32h-96zm0 0"/><path d="m360 168h96v32h-96zm0 0"/><path d="m168 168v32h160v-32"/></g><path d="m8 136h480v32h-480zm0 0" fill="#876b60"/><path d="m24 136v-32l224-96 224 96v32" fill="#ba9c90"/><path d="m280 72c0 17.671875-14.328125 32-32 32s-32-14.328125-32-32 14.328125-32 32-32 32 14.328125 32 32zm0 0" fill="#edd0c4"/><path d="m192 136v-32h-96v32" fill="#edd0c4"/><path d="m400 136v-32h-96v32" fill="#edd0c4"/><path d="m320 320c0 39.765625-32.234375 72-72 72s-72-32.234375-72-72 32.234375-72 72-72 72 32.234375 72 72zm0 0" fill="#dc9635"/><path d="m296 320c0-39.167969-26.863281-70.921875-60-70.921875s-60 31.753906-60 70.921875 26.863281 70.921875 60 70.921875 60-31.753906 60-70.921875zm0 0" fill="#f5bf45"/><path d="m488 496h-480c-4.425781 0-8-3.574219-8-8v-32c0-4.425781 3.574219-8 8-8h480c4.425781 0 8 3.574219 8 8v32c0 4.425781-3.574219 8-8 8zm-472-16h464v-16h-464zm0 0"/><path d="m136 432h-96c-4.425781 0-8-3.574219-8-8v-32c0-4.425781 3.574219-8 8-8h96c4.425781 0 8 3.574219 8 8v32c0 4.425781-3.574219 8-8 8zm-88-16h80v-16h-80zm0 0"/><path d="m136 208h-96c-4.425781 0-8-3.585938-8-8v-32c0-4.414062 3.574219-8 8-8h96c4.425781 0 8 3.585938 8 8v32c0 4.414062-3.574219 8-8 8zm-88-16h80v-16h-80zm0 0"/><path d="m48 200h16v192h-16zm0 0"/><path d="m80 200h16v192h-16zm0 0"/><path d="m248 360h-24v-16h24c4.414062 0 8-3.585938 8-8s-3.585938-8-8-8c-13.230469 0-24-10.769531-24-24s10.769531-24 24-24h24v16h-24c-4.414062 0-8 3.585938-8 8s3.585938 8 8 8c13.230469 0 24 10.769531 24 24s-10.769531 24-24 24zm0 0"/><path d="m240 264h16v24h-16zm0 0"/><path d="m240 352h16v24h-16zm0 0"/><path d="m248 400c-44.113281 0-80-35.886719-80-80s35.886719-80 80-80 80 35.886719 80 80-35.886719 80-80 80zm0-144c-35.289062 0-64 28.710938-64 64s28.710938 64 64 64 64-28.710938 64-64-28.710938-64-64-64zm0 0"/><path d="m472 464h-448c-4.425781 0-8-3.574219-8-8v-32c0-4.425781 3.574219-8 8-8h448c4.425781 0 8 3.574219 8 8v32c0 4.425781-3.574219 8-8 8zm-440-16h432v-16h-432zm0 0"/><path d="m488 176h-480c-4.425781 0-8-3.585938-8-8v-32c0-4.414062 3.574219-8 8-8h480c4.425781 0 8 3.585938 8 8v32c0 4.414062-3.574219 8-8 8zm-472-16h464v-16h-464zm0 0"/><path d="m480 136h-16v-26.726562l-216-92.570313-216 92.570313v26.726562h-16v-32c0-3.199219 1.902344-6.097656 4.847656-7.351562l224-96c2-.863282 4.296875-.863282 6.296875 0l224 96c2.953125 1.253906 4.855469 4.152343 4.855469 7.351562zm0 0"/><path d="m248 112c-22.054688 0-40-17.945312-40-40s17.945312-40 40-40 40 17.945312 40 40-17.945312 40-40 40zm0-64c-13.230469 0-24 10.769531-24 24s10.769531 24 24 24 24-10.769531 24-24-10.769531-24-24-24zm0 0"/><path d="m112 200h16v192h-16zm0 0"/><path d="m456 432h-96c-4.425781 0-8-3.574219-8-8v-32c0-4.425781 3.574219-8 8-8h96c4.425781 0 8 3.574219 8 8v32c0 4.425781-3.574219 8-8 8zm-88-16h80v-16h-80zm0 0"/><path d="m456 208h-96c-4.425781 0-8-3.585938-8-8v-32c0-4.414062 3.574219-8 8-8h96c4.425781 0 8 3.585938 8 8v32c0 4.414062-3.574219 8-8 8zm-88-16h80v-16h-80zm0 0"/><path d="m368 200h16v192h-16zm0 0"/><path d="m400 200h16v192h-16zm0 0"/><path d="m432 200h16v192h-16zm0 0"/><path d="m328 208h-160c-4.425781 0-8-3.585938-8-8v-32h16v24h144v-24h16v32c0 4.414062-3.574219 8-8 8zm0 0"/><path d="m200 136h-16v-24h-80v24h-16v-32c0-4.414062 3.574219-8 8-8h96c4.425781 0 8 3.585938 8 8zm0 0"/><path d="m408 136h-16v-24h-80v24h-16v-32c0-4.414062 3.574219-8 8-8h96c4.425781 0 8 3.585938 8 8zm0 0"/></svg>