<svg width="144" height="144" viewBox="0 0 144 144" fill="none" xmlns="http://www.w3.org/2000/svg">
<rect opacity="0.2" width="144" height="144" rx="24" fill="#D94F00"/>
<rect x="39" y="39" width="66" height="66" rx="24" fill="#D94F00"/>
<mask id="mask0" mask-type="alpha" maskUnits="userSpaceOnUse" x="39" y="39" width="66" height="66">
<rect x="39" y="39" width="66" height="66" rx="24" fill="white"/>
</mask>
<g mask="url(#mask0)">
<path fill-rule="evenodd" clip-rule="evenodd" d="M46 46H98.1053V98.733H46V46Z" fill="#D94F00"/>
<path fill-rule="evenodd" clip-rule="evenodd" d="M75.6453 56.2255H89.0026V69.6097H75.6453V56.2255ZM59.4972 76.3798V77.6891H61.7993V84.6162H63.3867V77.6362H65.5301V76.3269L59.4972 76.3807V76.3798ZM58.3116 78.003V76.6937C57.0381 76.1179 55.5736 75.9439 54.0741 76.6937C51.615 77.7932 51.5271 83.2378 53.9871 84.3023C55.3996 85.0179 58.3456 84.6861 58.6425 84.0574V79.7473H55.7135V80.8818H57.0031V83.1508C52.7656 85.2099 51.9809 75.3152 58.3116 78.003ZM68.112 80.8119H69.6285C70.8841 80.8648 71.2159 83.2378 69.5765 83.2198H68.112V80.8119ZM68.112 77.4793H69.6285C70.8841 77.7062 70.4312 79.5733 69.5765 79.6254H68.112V77.4793ZM66.5426 76.2058V84.5462H70.7101C72.8374 83.7785 72.9253 80.4809 70.7101 80.1312C72.7504 79.9052 72.8553 76.1529 69.3326 76.1529L66.5426 76.2058ZM73.901 78.5438V79.7823C75.0166 79.4684 77.4407 78.5958 77.2139 80.446C75.0866 80.306 73.6391 80.6899 73.3952 82.0154C72.9943 84.878 76.0632 85.1569 77.3538 83.7436V84.4242H78.8183V79.3985C78.4524 77.7752 76.0292 77.5663 73.901 78.5438ZM75.1386 81.7724C75.4704 81.3356 76.5341 81.3526 77.2488 81.5625V82.662C76.0812 83.9175 74.1978 83.3427 75.1395 81.7715L75.1386 81.7724ZM81.8531 80.0271C82.2369 79.6083 84.2772 78.8227 84.5911 80.0271V84.4592H86.2296V79.7653C85.8807 77.8102 84.0144 77.4613 81.7482 78.7877V78.055H80.1967V84.4942H81.8352L81.8531 80.0271ZM91.3737 77.9851L89.2295 80.8639L91.4966 84.4063L93.4669 84.3543L90.9738 80.9518L93.223 78.0371L91.3746 77.9851H91.3737ZM87.4511 75.8731H89.0725V84.4063H87.4502V75.874L87.4511 75.8731Z" fill="white"/>
<path fill-rule="evenodd" clip-rule="evenodd" d="M75.6453 56.2255H89.0025V69.6097H75.6453V56.2255Z" fill="white"/>
</g>
</svg>
