<svg width="46" height="46" viewBox="0 0 46 46" fill="none" xmlns="http://www.w3.org/2000/svg">
<path fill-rule="evenodd" clip-rule="evenodd" d="M0 0H46V46H0V0Z" fill="#D94F00"/>
<path fill-rule="evenodd" clip-rule="evenodd" d="M26.1716 8.91992H37.9637V20.5952H26.1716V8.91992ZM11.9156 26.5008V27.643H13.948V33.6856H15.3494V27.5968H17.2417V26.4547L11.9156 26.5016V26.5008ZM10.8691 27.9169V26.7747C9.74481 26.2725 8.4519 26.1207 7.12811 26.7747C4.95717 27.7338 4.87958 32.4832 7.05132 33.4118C8.2983 34.0361 10.8992 33.7467 11.1612 33.1983V29.4385H8.57541V30.4281H9.71393V32.4073C5.97297 34.2035 5.2802 25.5723 10.8691 27.9169ZM19.5209 30.3669H20.8597C21.9682 30.4131 22.2611 32.4831 20.8138 32.4674H19.5209V30.3669ZM19.5209 27.4599H20.8597C21.9682 27.6578 21.5683 29.2866 20.8138 29.3319H19.5209V27.4599ZM18.1355 26.3491V33.6246H21.8147C23.6927 32.9549 23.7703 30.0783 21.8147 29.7732C23.6159 29.5761 23.7086 26.3029 20.5986 26.3029L18.1355 26.3491ZM24.6316 28.3885V29.4689C25.6166 29.1951 27.7566 28.4339 27.5563 30.0478C25.6783 29.9258 24.4004 30.2606 24.1851 31.4169C23.8312 33.914 26.5405 34.1573 27.6798 32.9244V33.5182H28.9727V29.1341C28.6497 27.7181 26.5104 27.5358 24.6316 28.3885ZM25.7244 31.2049C26.0174 30.8239 26.9564 30.8388 27.5874 31.0218V31.9809C26.5565 33.0762 24.8939 32.5747 25.7252 31.2041L25.7244 31.2049ZM31.6521 29.6824C31.9909 29.3171 33.7921 28.6317 34.0693 29.6824V33.5486H35.5158V29.454C35.2078 27.7485 33.5602 27.4442 31.5594 28.6012V27.9621H30.1897V33.5791H31.6362L31.6521 29.6824ZM40.0571 27.9012L38.164 30.4124L40.1656 33.5025L41.905 33.4572L39.704 30.4891L41.6897 27.9465L40.0579 27.9012H40.0571ZM36.594 26.0588H38.0255V33.5025H36.5932V26.0596L36.594 26.0588Z" fill="white"/>
<path fill-rule="evenodd" clip-rule="evenodd" d="M26.1716 8.91992H37.9638V20.5952H26.1716V8.91992Z" fill="white"/>
</svg>
