<svg width="113" height="113" viewBox="0 0 113 113" fill="none" xmlns="http://www.w3.org/2000/svg">
<path opacity="0.1" fill-rule="evenodd" clip-rule="evenodd" d="M101.767 21.1239C108.713 32.73 106.848 47.5524 97.2464 57.1542L87.924 66.4763C84.6145 69.7858 80.6526 72.0697 76.5042 73.4216L76.504 73.608L64.0589 82.5106L57.4868 73.608V73.5146C53.292 72.1162 49.3299 69.8322 45.9741 66.4763C44.3428 64.8451 42.8977 62.9339 41.6391 60.8366C40.8002 60.4635 38.5629 54.3111 38.3766 53.3788C35.4401 43.3573 38.33 32.1706 45.9743 24.5263L55.2964 15.2042C61.775 8.72557 70.7245 5.64896 79.8135 6.721C86.4791 7.51356 92.5851 10.5431 97.2461 15.2042C98.9708 16.9288 100.509 18.9334 101.814 21.0773L101.767 21.1239ZM66.2502 50.6751L76.2717 54.8235L85.594 45.5014C90.5812 40.5143 91.0006 32.3569 85.6406 26.9969L85.5472 26.9036C80.4199 21.8696 72.0301 21.7765 66.9496 26.857L57.6275 36.1791C54.5509 39.2557 53.3856 42.7513 53.572 46.0143C53.7585 49.277 55.2964 52.4 57.627 54.7306L57.8136 54.6372L66.2502 50.6751Z" fill="#101326"/>
<path d="M76.5044 73.6079C70.3516 75.6589 63.6401 75.6589 57.4873 73.6079L48.3981 82.6971C42.2453 88.8499 34.4615 87.3116 29.8004 82.6506C25.0926 78.0361 23.5081 70.2984 29.7538 64.0529L39.076 54.7308C44.1567 49.65 52.4536 49.7434 57.627 54.7308L57.767 54.8708C62.4281 59.4386 70.1657 60.9299 76.2717 54.8237L76.458 54.6374C75.852 52.7262 74.9665 50.8153 73.8945 48.9975L73.9408 48.9511C72.6359 46.8068 71.051 44.8492 69.3264 43.1248C66.0636 39.8619 62.1949 37.3915 57.8602 35.9466C55.949 35.2472 53.9451 34.828 51.9405 34.5946C47.4192 34.0822 42.9447 34.5482 38.8428 35.9468C34.601 37.3915 30.6859 39.8153 27.423 43.0782L18.1006 52.4004C10.4566 60.0442 7.56694 71.2307 10.4568 81.2988C10.6897 82.1845 12.9269 88.3369 13.7661 88.7097C15.0245 90.8073 16.4696 92.7184 18.1009 94.3497C29.6602 105.909 48.4915 105.909 60.0508 94.3497L69.3729 85.0276C72.6825 81.7183 75.0597 77.7564 76.5044 73.6079Z" fill="#101326"/>
<path d="M110.577 11.1957L83.3564 38.4166C80.7928 40.9801 76.5978 40.9801 74.0342 38.4166C71.4707 35.853 71.4707 31.658 74.0342 29.0944L101.255 1.87339C103.753 -0.624463 108.079 -0.624463 110.577 1.87339C113.141 4.43694 113.141 8.63218 110.577 11.1957Z" fill="#101326"/>
<path d="M39.0755 82.6972L11.1955 110.577C8.63196 113.141 4.43672 113.141 1.87339 110.577C-0.624463 108.08 -0.624463 103.753 1.87339 101.255L29.7536 73.3751C32.3172 70.8115 36.5122 70.8115 39.0757 73.3751C41.6393 75.9386 41.6393 80.1336 39.0755 82.6972Z" fill="#D8E5E0"/>
</svg>
