<svg width="66" height="66" viewBox="0 0 66 66" fill="none" xmlns="http://www.w3.org/2000/svg">
<rect width="66" height="66" rx="24" fill="#083E9E"/>
<mask id="mask0" mask-type="alpha" maskUnits="userSpaceOnUse" x="0" y="0" width="66" height="66">
<rect width="66" height="66" rx="24" fill="white"/>
</mask>
<g mask="url(#mask0)">
<path fill-rule="evenodd" clip-rule="evenodd" d="M51.9433 32.0695C51.8697 30.9911 51.6933 29.9222 51.4166 28.8775C50.1549 24.2123 47.4969 20.5414 43.4449 17.9215C40.8926 16.2579 37.961 15.2703 34.9244 15.0512C33.6486 14.9578 32.3667 14.9923 31.0978 15.1543C29.7609 15.3316 28.4469 15.6518 27.1781 16.1094C20.2729 18.6059 15.5051 24.9724 15.0416 32.3151C15 32.9756 15 33.641 15 34.3039V50.4212C15 51.2931 15.7053 52 16.5752 52H22.788C23.5927 51.995 24.2665 51.3873 24.3559 50.5857C24.3967 50.4344 24.4181 50.2784 24.4196 50.1216V49.7484C24.4159 49.7199 24.4159 49.691 24.4196 49.6625V49.6207C24.4619 49.632 24.5018 49.6512 24.5371 49.6772C26.861 50.9652 29.4347 51.7357 32.0826 51.9362C33.1432 52.0148 34.2085 52.0041 35.2674 51.9042C40.3053 51.4392 44.9278 48.9086 48.0407 44.9113C50.236 42.1434 51.5794 38.7945 51.9065 35.2738C52.0174 34.2091 52.0297 33.1365 51.9433 32.0695ZM36.8034 42.3675C36.7808 42.4846 36.6774 42.5685 36.5584 42.5664H30.4339C30.3148 42.5685 30.2115 42.4846 30.1889 42.3675V42.3282V42.0998C30.1875 41.8181 30.2188 41.5371 30.282 41.2625C30.3032 41.2121 30.3201 41.1567 30.3373 41.1001L30.3373 41.1C30.352 41.0519 30.3669 41.003 30.3849 40.9556C30.4084 40.8937 30.4319 40.8345 30.4554 40.7753C30.4711 40.7358 30.4868 40.6963 30.5025 40.6561C30.5347 40.5733 30.5835 40.4971 30.6298 40.4249C30.6398 40.4093 30.6497 40.3939 30.6592 40.3786L30.7474 40.246C30.805 40.1602 30.868 40.0782 30.9361 40.0005C30.9868 39.9373 31.0376 39.8805 31.0883 39.8236C31.1086 39.8008 31.1289 39.7781 31.1492 39.7549C31.5178 39.3916 31.9657 39.1192 32.4574 38.9594C31.5861 38.4838 31.1467 37.4771 31.3898 36.513C31.6329 35.5489 32.4966 34.8722 33.4888 34.8687C34.0647 34.873 34.616 35.1031 35.0248 35.5095C35.5047 35.9935 35.7302 36.6751 35.6339 37.3506C35.5376 38.0261 35.1307 38.6171 34.5349 38.9471C35.8919 39.3954 36.8074 40.6677 36.8034 42.0998V42.3675ZM19.64 28.9954H47.3621C47.4671 28.9939 47.565 28.9421 47.6256 28.8562C47.6862 28.7702 47.702 28.6604 47.6683 28.5608C45.5485 22.5395 39.8704 18.5128 33.4998 18.5128C27.1292 18.5128 21.4511 22.5395 19.3313 28.5608C19.2975 28.6608 19.3136 28.7711 19.3748 28.8572C19.4359 28.9432 19.5345 28.9946 19.64 28.9954Z" fill="white"/>
</g>
</svg>
